<?xml version="1.0" encoding="UTF-8" standalone="no"?>
<svg width="270.933mm" height="103.717mm"
 xmlns="http://www.w3.org/2000/svg" xmlns:xlink="http://www.w3.org/1999/xlink"  version="1.2" baseProfile="tiny">
<desc>Created by EvoPdf</desc>
<defs>
</defs>
<g fill="none" stroke="black" stroke-width="1" fill-rule="evenodd" stroke-linecap="square" stroke-linejoin="bevel" >

<g fill="#000000" fill-opacity="1" stroke="#000000" stroke-opacity="1" stroke-width="1" stroke-linecap="square" stroke-linejoin="miter" stroke-miterlimit="2" transform="matrix(1,0,0,1,0,0)"
>
</g>

<g fill="#000000" fill-opacity="1" stroke="#000000" stroke-opacity="1" stroke-width="1" stroke-linecap="square" stroke-linejoin="miter" stroke-miterlimit="2" transform="matrix(1,0,0,1,0,0)"
>
</g>

<g fill="#000000" fill-opacity="1" stroke="#000000" stroke-opacity="1" stroke-width="1" stroke-linecap="square" stroke-linejoin="miter" stroke-miterlimit="2" transform="matrix(1,0,0,1,0,0)"
>
</g>

<g fill="#000000" fill-opacity="1" stroke="#000000" stroke-opacity="1" stroke-width="1" stroke-linecap="square" stroke-linejoin="miter" stroke-miterlimit="2" transform="matrix(1,0,0,1,0,0)"
>
</g>

<g fill="#000000" fill-opacity="1" stroke="#000000" stroke-opacity="1" stroke-width="1" stroke-linecap="square" stroke-linejoin="miter" stroke-miterlimit="2" transform="matrix(0.999978,0,0,0.999978,-49.8837,-46.17)"
>
</g>

<g fill="none" stroke="#000000" stroke-opacity="1" stroke-width="6.9449" stroke-linecap="round" stroke-linejoin="round" transform="matrix(0.999978,0,0,0.999978,-49.8837,-46.17)"
>
<path vector-effect="none" fill-rule="nonzero" d="M242.872,54.175 C274.826,54.175 305.095,62.585 332.002,77.719 L244.552,217.298 L162.149,74.355 C185.692,60.902 214.281,54.175 242.872,54.175 M229.419,225.708 L57.885,225.708 C62.932,165.169 96.566,113.034 147.015,82.766 L229.419,225.708 M347.139,86.129 C392.547,118.083 422.816,168.532 427.862,225.708 L259.692,225.708 L347.143,86.129 L347.139,86.129 M427.862,242.525 C427.862,306.428 394.228,361.924 345.459,393.878 L259.692,242.525 L427.862,242.525 M330.322,403.969 C305.095,417.422 274.826,425.832 242.872,425.832 C209.238,425.832 177.286,415.742 150.379,400.605 L242.872,250.936 L330.322,403.969 M135.245,390.515 C88.159,358.561 57.888,304.749 57.888,242.526 L227.74,242.526 L135.247,390.515 L135.245,390.515 M135.245,390.515"/>
</g>

<g fill="#000000" fill-opacity="1" stroke="#000000" stroke-opacity="1" stroke-width="1" stroke-linecap="square" stroke-linejoin="miter" stroke-miterlimit="2" transform="matrix(0.999978,0,0,0.999978,-49.8837,-46.17)"
>
</g>

<g fill="none" stroke="#000000" stroke-opacity="1" stroke-width="6.9449" stroke-linecap="round" stroke-linejoin="round" transform="matrix(0.999978,0,0,0.999978,-49.8837,-46.17)"
>
<path vector-effect="none" fill-rule="nonzero" d="M178.967,102.944 C178.967,102.944 252.96,57.537 313.503,107.991 "/>
</g>

<g fill="#000000" fill-opacity="1" stroke="#000000" stroke-opacity="1" stroke-width="1" stroke-linecap="square" stroke-linejoin="miter" stroke-miterlimit="2" transform="matrix(0.999978,0,0,0.999978,-49.8837,-46.17)"
>
</g>

<g fill="none" stroke="#000000" stroke-opacity="1" stroke-width="6.9449" stroke-linecap="round" stroke-linejoin="round" transform="matrix(0.999978,0,0,0.999978,-49.8837,-46.17)"
>
<path vector-effect="none" fill-rule="nonzero" d="M326.957,118.08 C326.957,118.08 402.633,158.439 389.18,225.71 "/>
</g>

<g fill="#000000" fill-opacity="1" stroke="#000000" stroke-opacity="1" stroke-width="1" stroke-linecap="square" stroke-linejoin="miter" stroke-miterlimit="2" transform="matrix(0.999978,0,0,0.999978,-49.8837,-46.17)"
>
</g>

<g fill="none" stroke="#000000" stroke-opacity="1" stroke-width="6.9449" stroke-linecap="round" stroke-linejoin="round" transform="matrix(0.999978,0,0,0.999978,-49.8837,-46.17)"
>
<path vector-effect="none" fill-rule="nonzero" d="M325.275,358.563 C325.275,358.563 367.319,341.746 380.771,298.023 "/>
</g>

<g fill="#000000" fill-opacity="1" stroke="#000000" stroke-opacity="1" stroke-width="1" stroke-linecap="square" stroke-linejoin="miter" stroke-miterlimit="2" transform="matrix(0.999978,0,0,0.999978,-49.8837,-46.17)"
>
</g>

<g fill="none" stroke="#000000" stroke-opacity="1" stroke-width="6.9449" stroke-linecap="round" stroke-linejoin="round" transform="matrix(0.999978,0,0,0.999978,-49.8837,-46.17)"
>
<path vector-effect="none" fill-rule="nonzero" d="M172.24,365.289 C172.24,365.289 194.104,388.833 236.143,387.153 "/>
</g>

<g fill="#000000" fill-opacity="1" stroke="#000000" stroke-opacity="1" stroke-width="1" stroke-linecap="square" stroke-linejoin="miter" stroke-miterlimit="2" transform="matrix(0.999978,0,0,0.999978,-49.8837,-46.17)"
>
</g>

<g fill="none" stroke="#000000" stroke-opacity="1" stroke-width="6.9449" stroke-linecap="round" stroke-linejoin="round" transform="matrix(0.999978,0,0,0.999978,-49.8837,-46.17)"
>
<path vector-effect="none" fill-rule="nonzero" d="M101.607,242.525 C101.607,242.525 83.107,311.475 157.103,355.199 "/>
</g>

<g fill="#000000" fill-opacity="1" stroke="#000000" stroke-opacity="1" stroke-width="1" stroke-linecap="square" stroke-linejoin="miter" stroke-miterlimit="2" transform="matrix(0.999978,0,0,0.999978,-49.8837,-46.17)"
>
</g>

<g fill="none" stroke="#000000" stroke-opacity="1" stroke-width="6.9449" stroke-linecap="round" stroke-linejoin="round" transform="matrix(0.999978,0,0,0.999978,-49.8837,-46.17)"
>
<path vector-effect="none" fill-rule="nonzero" d="M94.881,225.708 C94.881,225.708 91.517,176.939 116.744,156.759 "/>
</g>

<g fill="#000000" fill-opacity="1" stroke="#000000" stroke-opacity="1" stroke-width="1" stroke-linecap="square" stroke-linejoin="miter" stroke-miterlimit="2" transform="matrix(0.999978,0,0,0.999978,-49.8837,-46.17)"
>
</g>

<g fill="none" stroke="#000000" stroke-opacity="1" stroke-width="6.9449" stroke-linecap="round" stroke-linejoin="round" transform="matrix(0.999978,0,0,0.999978,-49.8837,-46.17)"
>
<path vector-effect="none" fill-rule="nonzero" d="M163.832,113.034 C163.832,113.034 147.015,111.351 128.515,138.262 "/>
</g>

<g fill="#000000" fill-opacity="1" stroke="#000000" stroke-opacity="1" stroke-width="1" stroke-linecap="square" stroke-linejoin="miter" stroke-miterlimit="2" transform="matrix(0.999978,0,0,0.999978,-49.8837,-46.17)"
>
</g>

<g fill="none" stroke="#000000" stroke-opacity="1" stroke-width="6.9449" stroke-linecap="round" stroke-linejoin="round" transform="matrix(0.999978,0,0,0.999978,-49.8837,-46.17)"
>
<path vector-effect="none" fill-rule="nonzero" d="M389.18,242.525 C389.18,242.525 399.27,261.026 389.18,279.521 "/>
</g>

<g fill="#000000" fill-opacity="1" stroke="#000000" stroke-opacity="1" stroke-width="1" stroke-linecap="square" stroke-linejoin="miter" stroke-miterlimit="2" transform="matrix(0.999978,0,0,0.999978,-49.8837,-46.17)"
>
</g>

<g fill="none" stroke="#000000" stroke-opacity="1" stroke-width="6.9449" stroke-linecap="round" stroke-linejoin="round" transform="matrix(0.999978,0,0,0.999978,-49.8837,-46.17)"
>
<path vector-effect="none" fill-rule="nonzero" d="M306.776,361.926 C306.776,361.926 279.869,383.79 251.28,383.79 "/>
</g>

<g fill="#000000" fill-opacity="1" stroke="#000000" stroke-opacity="1" stroke-width="1" stroke-linecap="square" stroke-linejoin="miter" stroke-miterlimit="2" transform="matrix(0.999978,0,0,0.999978,-49.8837,-46.17)"
>
</g>

<g fill="none" stroke="#000000" stroke-opacity="1" stroke-width="6.9449" stroke-linecap="round" stroke-linejoin="round" transform="matrix(0.999978,0,0,0.999978,-49.8837,-46.17)"
>
<path vector-effect="none" fill-rule="nonzero" d="M360.591,183.666 C360.591,192.021 353.813,198.799 345.454,198.799 C337.098,198.799 330.321,192.021 330.321,183.666 C330.321,175.306 337.098,168.529 345.454,168.529 C353.813,168.529 360.591,175.306 360.591,183.666 "/>
</g>

<g fill="#000000" fill-opacity="1" stroke="#000000" stroke-opacity="1" stroke-width="1" stroke-linecap="square" stroke-linejoin="miter" stroke-miterlimit="2" transform="matrix(0.999978,0,0,0.999978,-49.8837,-46.17)"
>
</g>

<g fill="none" stroke="#000000" stroke-opacity="1" stroke-width="6.9449" stroke-linecap="round" stroke-linejoin="round" transform="matrix(0.999978,0,0,0.999978,-49.8837,-46.17)"
>
<path vector-effect="none" fill-rule="nonzero" d="M170.559,203.846 L171.102,203.846 L171.102,204.389 L170.559,204.389 L170.559,203.846 M170.559,203.846"/>
</g>

<g fill="#000000" fill-opacity="1" stroke="#000000" stroke-opacity="1" stroke-width="1" stroke-linecap="square" stroke-linejoin="miter" stroke-miterlimit="2" transform="matrix(0.999978,0,0,0.999978,-49.8837,-46.17)"
>
</g>

<g fill="none" stroke="#000000" stroke-opacity="1" stroke-width="6.9449" stroke-linecap="round" stroke-linejoin="round" transform="matrix(0.999978,0,0,0.999978,-49.8837,-46.17)"
>
<path vector-effect="none" fill-rule="nonzero" d="M195.766,263.168 L196.309,263.168 L196.309,263.711 L195.766,263.711 L195.766,263.168 M195.766,263.168"/>
</g>

<g fill="#000000" fill-opacity="1" stroke="#000000" stroke-opacity="1" stroke-width="1" stroke-linecap="square" stroke-linejoin="miter" stroke-miterlimit="2" transform="matrix(0.999978,0,0,0.999978,-49.8837,-46.17)"
>
</g>

<g fill="none" stroke="#000000" stroke-opacity="1" stroke-width="6.9449" stroke-linecap="round" stroke-linejoin="round" transform="matrix(0.999978,0,0,0.999978,-49.8837,-46.17)"
>
<path vector-effect="none" fill-rule="nonzero" d="M248.854,286.942 L249.397,286.942 L249.397,287.485 L248.854,287.485 L248.854,286.942 M248.854,286.942"/>
</g>

<g fill="#000000" fill-opacity="1" stroke="#000000" stroke-opacity="1" stroke-width="1" stroke-linecap="square" stroke-linejoin="miter" stroke-miterlimit="2" transform="matrix(0.999978,0,0,0.999978,-49.8837,-46.17)"
>
</g>

<g fill="none" stroke="#000000" stroke-opacity="1" stroke-width="6.9449" stroke-linecap="round" stroke-linejoin="round" transform="matrix(0.999978,0,0,0.999978,-49.8837,-46.17)"
>
<path vector-effect="none" fill-rule="nonzero" d="M242.217,181.15 L242.76,181.15 L242.76,181.693 L242.217,181.693 L242.217,181.15 M242.217,181.15"/>
</g>

<g fill="#000000" fill-opacity="1" stroke="#000000" stroke-opacity="1" stroke-width="1" stroke-linecap="square" stroke-linejoin="miter" stroke-miterlimit="2" transform="matrix(0.999978,0,0,0.999978,-49.8837,-46.17)"
>
</g>

<g fill="none" stroke="#000000" stroke-opacity="1" stroke-width="6.9449" stroke-linecap="round" stroke-linejoin="round" transform="matrix(0.999978,0,0,0.999978,-49.8837,-46.17)"
>
<path vector-effect="none" fill-rule="nonzero" d="M333.684,146.668 L334.227,146.668 L334.227,147.211 L333.684,147.211 L333.684,146.668 M333.684,146.668"/>
</g>

<g fill="#000000" fill-opacity="1" stroke="#000000" stroke-opacity="1" stroke-width="1" stroke-linecap="square" stroke-linejoin="miter" stroke-miterlimit="2" transform="matrix(0.999978,0,0,0.999978,-49.8837,-46.17)"
>
</g>

<g fill="none" stroke="#000000" stroke-opacity="1" stroke-width="6.9449" stroke-linecap="round" stroke-linejoin="round" transform="matrix(0.999978,0,0,0.999978,-49.8837,-46.17)"
>
<path vector-effect="none" fill-rule="nonzero" d="M308.458,274.478 L309.001,274.478 L309.001,275.021 L308.458,275.021 L308.458,274.478 M308.458,274.478"/>
</g>

<g fill="#000000" fill-opacity="1" stroke="#000000" stroke-opacity="1" stroke-width="1" stroke-linecap="square" stroke-linejoin="miter" stroke-miterlimit="2" transform="matrix(0.999978,0,0,0.999978,-49.8837,-46.17)"
>
</g>

<g fill="none" stroke="#000000" stroke-opacity="1" stroke-width="6.9449" stroke-linecap="round" stroke-linejoin="round" transform="matrix(0.999978,0,0,0.999978,-49.8837,-46.17)"
>
<path vector-effect="none" fill-rule="nonzero" d="M335.365,326.61 L335.908,326.61 L335.908,327.153 L335.365,327.153 L335.365,326.61 M335.365,326.61"/>
</g>

<g fill="#000000" fill-opacity="1" stroke="#000000" stroke-opacity="1" stroke-width="1" stroke-linecap="square" stroke-linejoin="miter" stroke-miterlimit="2" transform="matrix(0.999978,0,0,0.999978,-49.8837,-46.17)"
>
</g>

<g fill="none" stroke="#000000" stroke-opacity="1" stroke-width="6.9449" stroke-linecap="round" stroke-linejoin="round" transform="matrix(0.999978,0,0,0.999978,-49.8837,-46.17)"
>
<path vector-effect="none" fill-rule="nonzero" d="M115.061,203.846 L115.604,203.846 L115.604,204.389 L115.061,204.389 L115.061,203.846 M115.061,203.846"/>
</g>

<g fill="#000000" fill-opacity="1" stroke="#000000" stroke-opacity="1" stroke-width="1" stroke-linecap="square" stroke-linejoin="miter" stroke-miterlimit="2" transform="matrix(0.999978,0,0,0.999978,-49.8837,-46.17)"
>
</g>

<g fill="none" stroke="#000000" stroke-opacity="1" stroke-width="6.7" stroke-linecap="round" stroke-linejoin="round" transform="matrix(0.999978,0,0,0.999978,-49.8837,-46.17)"
>
<path vector-effect="none" fill-rule="nonzero" d="M270.976,150.444 C270.976,157.187 265.507,162.656 258.761,162.656 C252.017,162.656 246.548,157.187 246.548,150.444 C246.548,143.697 252.017,138.228 258.761,138.228 C265.507,138.228 270.976,143.697 270.976,150.444 "/>
</g>

<g fill="#000000" fill-opacity="1" stroke="#000000" stroke-opacity="1" stroke-width="1" stroke-linecap="square" stroke-linejoin="miter" stroke-miterlimit="2" transform="matrix(0.999978,0,0,0.999978,-49.8837,-46.17)"
>
</g>

<g fill="none" stroke="#000000" stroke-opacity="1" stroke-width="6.9449" stroke-linecap="round" stroke-linejoin="round" transform="matrix(0.999978,0,0,0.999978,-49.8837,-46.17)"
>
<path vector-effect="none" fill-rule="nonzero" d="M179.854,265.513 C179.854,273.868 173.076,280.646 164.717,280.646 C156.361,280.646 149.584,273.868 149.584,265.513 C149.584,257.153 156.361,250.376 164.717,250.376 C173.076,250.376 179.854,257.153 179.854,265.513 "/>
</g>

<g fill="#000000" fill-opacity="1" stroke="#000000" stroke-opacity="1" stroke-width="1" stroke-linecap="square" stroke-linejoin="miter" stroke-miterlimit="2" transform="matrix(0.999978,0,0,0.999978,-49.8837,-46.17)"
>
</g>

<g fill="none" stroke="#000000" stroke-opacity="1" stroke-width="6.9449" stroke-linecap="round" stroke-linejoin="round" transform="matrix(0.999978,0,0,0.999978,-49.8837,-46.17)"
>
<path vector-effect="none" fill-rule="nonzero" d="M283.242,349.626 C283.242,357.981 276.464,364.759 268.105,364.759 C259.749,364.759 252.972,357.981 252.972,349.626 C252.972,341.266 259.749,334.489 268.105,334.489 C276.464,334.489 283.242,341.266 283.242,349.626 "/>
</g>

<g fill="#000000" fill-opacity="1" stroke="#000000" stroke-opacity="1" stroke-width="1" stroke-linecap="square" stroke-linejoin="miter" stroke-miterlimit="2" transform="matrix(0.999978,0,0,0.999978,-49.8837,-46.17)"
>
</g>

<g fill="none" stroke="#000000" stroke-opacity="1" stroke-width="6.9449" stroke-linecap="round" stroke-linejoin="round" transform="matrix(0.999978,0,0,0.999978,-163.555,-52.0493)"
>
<path vector-effect="none" fill-rule="nonzero" d="M335.365,326.61 L335.908,326.61 L335.908,327.153 L335.365,327.153 L335.365,326.61 M335.365,326.61"/>
</g>

<g fill="#000000" fill-opacity="1" stroke="#000000" stroke-opacity="1" stroke-width="1" stroke-linecap="square" stroke-linejoin="miter" stroke-miterlimit="2" transform="matrix(0.999978,0,0,0.999978,-49.8837,-46.17)"
>
</g>

<g fill="none" stroke="#000000" stroke-opacity="1" stroke-width="6.9449" stroke-linecap="round" stroke-linejoin="round" transform="matrix(0.999978,0,0,0.999978,-231.895,-39.7832)"
>
<path vector-effect="none" fill-rule="nonzero" d="M335.365,326.61 L335.908,326.61 L335.908,327.153 L335.365,327.153 L335.365,326.61 M335.365,326.61"/>
</g>

<g fill="#000000" fill-opacity="1" stroke="#000000" stroke-opacity="1" stroke-width="1" stroke-linecap="square" stroke-linejoin="miter" stroke-miterlimit="2" transform="matrix(0.999978,0,0,0.999978,-49.8837,-46.17)"
>
</g>

<g fill="#000000" fill-opacity="1" stroke="#000000" stroke-opacity="1" stroke-width="1" stroke-linecap="square" stroke-linejoin="miter" stroke-miterlimit="2" transform="matrix(0.999978,0,0,0.999978,-49.8837,-46.17)"
>
</g>

<g fill="#000000" fill-opacity="1" stroke="#000000" stroke-opacity="1" stroke-width="1" stroke-linecap="square" stroke-linejoin="miter" stroke-miterlimit="2" transform="matrix(1,0,0,1,0,0)"
>
</g>

<g fill="#000000" fill-opacity="1" stroke="#000000" stroke-opacity="1" stroke-width="1" stroke-linecap="square" stroke-linejoin="miter" stroke-miterlimit="2" transform="matrix(1,0,0,1,0,0)"
>
</g>

<g fill="#000000" fill-opacity="1" stroke="#000000" stroke-opacity="1" stroke-width="1" stroke-linecap="square" stroke-linejoin="miter" stroke-miterlimit="2" transform="matrix(1,0,0,1,0,0)"
>
</g>

<g fill="#000000" fill-opacity="1" stroke="#000000" stroke-opacity="1" stroke-width="1" stroke-linecap="square" stroke-linejoin="miter" stroke-miterlimit="2" transform="matrix(1,0,0,1,0,0)"
>
</g>

<g fill="#000000" fill-opacity="1" stroke="#000000" stroke-opacity="1" stroke-width="1" stroke-linecap="square" stroke-linejoin="miter" stroke-miterlimit="2" transform="matrix(0.999978,0,0,0.999978,-49.8837,-46.17)"
>
</g>

<g fill="#000000" fill-opacity="1" stroke="#000000" stroke-opacity="1" stroke-width="1" stroke-linecap="square" stroke-linejoin="miter" stroke-miterlimit="2" transform="matrix(1,0,0,1,0,0)"
>
</g>

<g fill="#000000" fill-opacity="1" stroke="#000000" stroke-opacity="1" stroke-width="1" stroke-linecap="square" stroke-linejoin="miter" stroke-miterlimit="2" transform="matrix(1,0,0,1,0,0)"
>
</g>

<g fill="#000000" fill-opacity="1" stroke="#000000" stroke-opacity="1" stroke-width="1" stroke-linecap="square" stroke-linejoin="miter" stroke-miterlimit="2" transform="matrix(1,0,0,1,0,0)"
>
</g>

<g fill="#000000" fill-opacity="1" stroke="#000000" stroke-opacity="1" stroke-width="1" stroke-linecap="square" stroke-linejoin="miter" stroke-miterlimit="2" transform="matrix(1,0,0,1,0,0)"
>
</g>

<g fill="#000000" fill-opacity="1" stroke="#000000" stroke-opacity="1" stroke-width="1" stroke-linecap="square" stroke-linejoin="miter" stroke-miterlimit="2" transform="matrix(1,0,0,1,0,0)"
>
</g>

<g fill="#000000" fill-opacity="1" stroke="#000000" stroke-opacity="1" stroke-width="1" stroke-linecap="square" stroke-linejoin="miter" stroke-miterlimit="2" transform="matrix(1,0,0,1,0,0)"
>
</g>
</g>
</svg>
